<svg xmlns="http://www.w3.org/2000/svg" xmlns:xlink="http://www.w3.org/1999/xlink" version="1.1" x="0px" y="0px" viewBox="0 0 100 125" style="enable-background:new 0 0 100 100;" xml:space="preserve"><g><path d="M50,0C30.016,0,13.816,16.201,13.816,36.185C13.816,64.987,50,100,50,100s36.184-35.013,36.184-63.815   C86.184,16.201,69.984,0,50,0z M70.775,33.075c0,0.711-0.576,1.288-1.287,1.288h-2.561c0,0,2.199,2.846,2.199,7.075v5.976   c0,1.662-1.504,2.568-2.568,2.568c0,0-0.082,0-0.236,0v4.033c0,1.419-1.15,2.567-2.568,2.567h-3.502   c-1.418,0-2.568-1.148-2.568-2.567v-4.033c-4.76,0-10.607,0-15.367,0v4.033c0,1.419-1.15,2.567-2.568,2.567h-3.502   c-1.418,0-2.568-1.148-2.568-2.567v-4.033c-0.155,0-0.237,0-0.237,0c-1.064,0-2.568-0.906-2.568-2.568v-5.976   c0-4.184,2.2-7.075,2.2-7.075h-2.561c-0.711,0-1.288-0.576-1.288-1.288V30.3c0-0.711,0.576-1.288,1.288-1.288h2.561v-2.269   c0-3.607,0.833-9.498,7.863-9.498h18.128c7.03,0,7.863,5.89,7.863,9.498v2.269h2.561c0.711,0,1.287,0.577,1.287,1.288V33.075z    M41.396,41.313c0,2.001-1.623,3.624-3.625,3.624c-2.001,0-3.624-1.623-3.624-3.624c0-2.002,1.623-3.625,3.624-3.625   C39.773,37.688,41.396,39.311,41.396,41.313z M43.199,43.813h13.602v1.037H43.199V43.813z M43.199,37.602h13.602v1.037H43.199   V37.602z M60.729,32.688c0,0-21.448,0-21.457,0c-0.689,0-1.664-0.446-1.664-1.664v-4.18c0-2.337,0.539-6.153,5.094-6.153h14.597   c4.554,0,5.094,3.816,5.094,6.153v4.18C62.393,32.242,61.418,32.688,60.729,32.688z M65.854,41.226   c0,2.002-1.623,3.625-3.625,3.625s-3.624-1.623-3.624-3.625c0-2.001,1.622-3.624,3.624-3.624S65.854,39.225,65.854,41.226z"/></g><text x="0" y="115" fill="#000000" font-size="5px" font-weight="bold" font-family="'Helvetica Neue', Helvetica, Arial-Unicode, Arial, Sans-serif">Created by b farias</text><text x="0" y="120" fill="#000000" font-size="5px" font-weight="bold" font-family="'Helvetica Neue', Helvetica, Arial-Unicode, Arial, Sans-serif">from the Noun Project</text></svg>